<?xml version="1.0" encoding="utf-8"?>
<!-- Generator: Adobe Illustrator 21.0.0, SVG Export Plug-In . SVG Version: 6.00 Build 0)  -->
<svg version="1.1" id="Layer_1" xmlns="http://www.w3.org/2000/svg" xmlns:xlink="http://www.w3.org/1999/xlink" x="0px" y="0px"
	 viewBox="0 0 49.2 49.2" style="enable-background:new 0 0 49.2 49.2;" xml:space="preserve">
<g>
	<circle cx="24.4" cy="24.8" r="4.4"/>
	<path d="M29.9,14h-11c-1.6,0-3,0.5-3.9,1.4c-0.9,0.9-1.4,2.3-1.4,3.9v11c0,1.6,0.5,3,1.5,4c1,0.9,2.3,1.4,3.9,1.4h10.9
		c1.6,0,3-0.5,3.9-1.4c1-0.9,1.5-2.3,1.5-3.9v-11c0-1.6-0.5-2.9-1.4-3.9C32.9,14.5,31.6,14,29.9,14z M24.4,31.6
		c-3.8,0-6.8-3.1-6.8-6.8c0-3.8,3.1-6.8,6.8-6.8s6.9,3,6.9,6.8S28.2,31.6,24.4,31.6z M31.5,19.3c-0.9,0-1.6-0.7-1.6-1.6
		c0-0.9,0.7-1.6,1.6-1.6c0.9,0,1.6,0.7,1.6,1.6C33.1,18.6,32.4,19.3,31.5,19.3z"/>
	<path d="M24.6,0C11,0,0,11,0,24.6s11,24.6,24.6,24.6s24.6-11,24.6-24.6C49.3,11,38.2,0,24.6,0z M37.7,30.4c0,2.3-0.8,4.3-2.2,5.7
		s-3.4,2.1-5.6,2.1H19c-2.2,0-4.2-0.7-5.6-2.1c-1.5-1.4-2.2-3.4-2.2-5.7v-11c0-4.6,3.1-7.8,7.8-7.8h11c2.3,0,4.2,0.8,5.6,2.2
		c1.4,1.4,2.1,3.3,2.1,5.6C37.7,19.4,37.7,30.4,37.7,30.4z"/>
</g>
</svg>
