<?xml version="1.0" encoding="utf-8"?>
<!-- Generator: Adobe Illustrator 21.0.0, SVG Export Plug-In . SVG Version: 6.00 Build 0)  -->
<svg version="1.1" id="Layer_1" xmlns="http://www.w3.org/2000/svg" xmlns:xlink="http://www.w3.org/1999/xlink" x="0px" y="0px"
	 viewBox="0 0 32 32" style="enable-background:new 0 0 32 32;" xml:space="preserve">
<style type="text/css">
	.st0{fill:#1693A5;}
</style>
<g>
	<path class="st0" d="M16,9.2c-1.7,0-3,1.3-3,3s1.4,3,3,3s3-1.3,3-3S17.7,9.2,16,9.2z"/>
	<path class="st0" d="M16,0C7.2,0,0,7.2,0,16s7.2,16,16,16s16-7.2,16-16S24.8,0,16,0z M22.5,14.2c0,0.2-0.1,0.5-0.2,0.7l-0.2,0.4
		L16,26.5L9.8,15.3l-0.2-0.5c-0.1-0.2-0.1-0.5-0.2-0.7c-0.1-0.6-0.2-1.2-0.2-1.8c0-3.8,3.1-6.8,6.8-6.8s6.8,3.1,6.7,6.9
		C22.7,13,22.7,13.6,22.5,14.2z"/>
</g>
</svg>
