<?xml version="1.0" encoding="utf-8"?>
<!-- Generator: Adobe Illustrator 21.0.0, SVG Export Plug-In . SVG Version: 6.00 Build 0)  -->
<svg version="1.1" id="Layer_1" xmlns="http://www.w3.org/2000/svg" xmlns:xlink="http://www.w3.org/1999/xlink" x="0px" y="0px"
	 viewBox="0 0 32 32" style="enable-background:new 0 0 32 32;" xml:space="preserve">
<style type="text/css">
	.st0{fill:#FFFFFF;}
</style>
<g id="Style_2_copy_3">
	<g>
		<g>
			<path d="M16,0C7.2,0,0,7.2,0,16s7.2,16,16,16s16-7.2,16-16S24.8,0,16,0z"/>
		</g>
	</g>
</g>
<g id="style_4_1_">
	<g>
		
			<rect x="21.4" y="17.5" transform="matrix(0.7879 -0.6158 0.6158 0.7879 -7.8116 18.2563)" class="st0" width="2.4" height="5.9"/>
		<path class="st0" d="M22.5,24.3l-3.6-4.6c0,0-2.4-0.6-4-2.7c-1.7-2.2-1.6-4.6-1.6-4.6L9.6,7.7c0,0-3.4,4.9,2,11.8
			S22.5,24.3,22.5,24.3z"/>
		<rect x="12.1" y="5.6" transform="matrix(0.7879 -0.6158 0.6158 0.7879 -2.449 10.0063)" class="st0" width="2.4" height="5.9"/>
	</g>
</g>
</svg>
