<?xml version="1.0" encoding="utf-8"?>
<!-- Generator: Adobe Illustrator 21.0.0, SVG Export Plug-In . SVG Version: 6.00 Build 0)  -->
<svg version="1.1" id="Layer_1" xmlns="http://www.w3.org/2000/svg" xmlns:xlink="http://www.w3.org/1999/xlink" x="0px" y="0px"
	 viewBox="0 0 32 32" style="enable-background:new 0 0 32 32;" xml:space="preserve">
<style type="text/css">
	.st0{fill:#1693A5;}
	.st1{fill:#FFFFFF;}
</style>
<g>
	<g>
		<path class="st0" d="M16,0C7.2,0,0,7.2,0,16s7.2,16,16,16s16-7.2,16-16S24.8,0,16,0z"/>
	</g>
</g>
<g>
	<path class="st1" d="M4.9,13.3l0.4,2.2c0.1,0.6,0.2,1.2,0.3,1.8l0,0C5.7,16.7,5.9,16,6,15.5l0.6-2.2H8l0.5,2.2
		c0.1,0.6,0.3,1.2,0.4,1.9l0,0c0.1-0.6,0.2-1.2,0.3-1.9l0.5-2.2h1.7l-1.7,5.5H8.1l-0.5-1.9c-0.1-0.5-0.2-1-0.3-1.7l0,0
		c-0.1,0.7-0.2,1.2-0.4,1.7l-0.5,1.9H4.8l-1.6-5.5L4.9,13.3L4.9,13.3z"/>
	<path class="st1" d="M13.6,13.3l0.4,2.2c0.1,0.6,0.2,1.2,0.3,1.8l0,0c0.1-0.6,0.3-1.3,0.4-1.8l0.6-2.2h1.3l0.5,2.2
		c0.1,0.6,0.3,1.2,0.4,1.9l0,0c0.1-0.6,0.2-1.2,0.3-1.9l0.5-2.2H20l-1.7,5.5h-1.6l-0.5-1.9c-0.1-0.5-0.2-1-0.3-1.7l0,0
		c-0.1,0.7-0.2,1.2-0.4,1.7L15,18.8h-1.6l-1.6-5.5C11.9,13.3,13.6,13.3,13.6,13.3z"/>
	<path class="st1" d="M22.3,13.3l0.4,2.2c0.1,0.6,0.2,1.2,0.3,1.8l0,0c0.1-0.6,0.3-1.3,0.4-1.8l0.6-2.2h1.3l0.5,2.2
		c0.1,0.6,0.3,1.2,0.4,1.9l0,0c0.1-0.6,0.2-1.2,0.3-1.9l0.5-2.2h1.7L27,18.8h-1.6l-0.4-2c-0.1-0.5-0.2-1-0.3-1.7l0,0
		c-0.1,0.7-0.2,1.2-0.4,1.7l-0.5,1.9h-1.6l-1.6-5.5C20.6,13.3,22.3,13.3,22.3,13.3z"/>
</g>
</svg>
